<mxfile host="65bd71144e">
    <diagram id="3D_Multivariate_Normal" name="Page-1">
        <mxGraphModel dx="1422" dy="766" grid="1" gridSize="10" guides="1" tooltips="1" connect="1" arrows="1" fold="1" page="1" pageScale="1" pageWidth="827" pageHeight="1169" math="1" shadow="0">
            <root>
                <mxCell id="0"/>
                <mxCell id="1" parent="0"/>
                
                <!-- Title -->
                <mxCell id="2" value="多変量正規分布 3D 表現" style="text;html=1;strokeColor=none;fillColor=none;align=center;verticalAlign=middle;whiteSpace=wrap;rounded=0;fontSize=18;fontStyle=1;" vertex="1" parent="1">
                    <mxGeometry x="263.5" y="30" width="300" height="30" as="geometry"/>
                </mxCell>
                
                <!-- 3D Coordinate System -->
                <!-- X-axis (perspective) -->
                <mxCell id="3" value="" style="endArrow=classic;html=1;rounded=0;strokeWidth=3;strokeColor=#1f497d;" edge="1" parent="1">
                    <mxGeometry width="50" height="50" relative="1" as="geometry">
                        <mxPoint x="200" y="400" as="sourcePoint"/>
                        <mxPoint x="450" y="400" as="targetPoint"/>
                    </mxGeometry>
                </mxCell>
                
                <!-- Y-axis (perspective) -->
                <mxCell id="4" value="" style="endArrow=classic;html=1;rounded=0;strokeWidth=3;strokeColor=#1f497d;" edge="1" parent="1">
                    <mxGeometry width="50" height="50" relative="1" as="geometry">
                        <mxPoint x="200" y="400" as="sourcePoint"/>
                        <mxPoint x="100" y="300" as="targetPoint"/>
                    </mxGeometry>
                </mxCell>
                
                <!-- Z-axis (vertical) -->
                <mxCell id="5" value="" style="endArrow=classic;html=1;rounded=0;strokeWidth=3;strokeColor=#1f497d;" edge="1" parent="1">
                    <mxGeometry width="50" height="50" relative="1" as="geometry">
                        <mxPoint x="200" y="400" as="sourcePoint"/>
                        <mxPoint x="200" y="150" as="targetPoint"/>
                    </mxGeometry>
                </mxCell>
                
                <!-- Axis Labels -->
                <mxCell id="6" value="X₁" style="text;html=1;strokeColor=none;fillColor=none;align=center;verticalAlign=middle;whiteSpace=wrap;rounded=0;fontSize=16;fontStyle=1;fontColor=#1f497d;" vertex="1" parent="1">
                    <mxGeometry x="450" y="405" width="30" height="20" as="geometry"/>
                </mxCell>
                
                <mxCell id="7" value="X₂" style="text;html=1;strokeColor=none;fillColor=none;align=center;verticalAlign=middle;whiteSpace=wrap;rounded=0;fontSize=16;fontStyle=1;fontColor=#1f497d;" vertex="1" parent="1">
                    <mxGeometry x="70" y="280" width="30" height="20" as="geometry"/>
                </mxCell>
                
                <mxCell id="8" value="f(X₁,X₂)" style="text;html=1;strokeColor=none;fillColor=none;align=center;verticalAlign=middle;whiteSpace=wrap;rounded=0;fontSize=14;fontStyle=1;fontColor=#1f497d;" vertex="1" parent="1">
                    <mxGeometry x="205" y="125" width="60" height="20" as="geometry"/>
                </mxCell>
                
                <!-- Base Grid (XY plane) -->
                <!-- Grid lines for depth -->
                <mxCell id="9" value="" style="endArrow=none;html=1;rounded=0;strokeColor=#cccccc;strokeWidth=1;" edge="1" parent="1">
                    <mxGeometry width="50" height="50" relative="1" as="geometry">
                        <mxPoint x="200" y="400" as="sourcePoint"/>
                        <mxPoint x="150" y="350" as="targetPoint"/>
                    </mxGeometry>
                </mxCell>
                
                <mxCell id="10" value="" style="endArrow=none;html=1;rounded=0;strokeColor=#cccccc;strokeWidth=1;" edge="1" parent="1">
                    <mxGeometry width="50" height="50" relative="1" as="geometry">
                        <mxPoint x="250" y="400" as="sourcePoint"/>
                        <mxPoint x="200" y="350" as="targetPoint"/>
                    </mxGeometry>
                </mxCell>
                
                <mxCell id="11" value="" style="endArrow=none;html=1;rounded=0;strokeColor=#cccccc;strokeWidth=1;" edge="1" parent="1">
                    <mxGeometry width="50" height="50" relative="1" as="geometry">
                        <mxPoint x="300" y="400" as="sourcePoint"/>
                        <mxPoint x="250" y="350" as="targetPoint"/>
                    </mxGeometry>
                </mxCell>
                
                <mxCell id="12" value="" style="endArrow=none;html=1;rounded=0;strokeColor=#cccccc;strokeWidth=1;" edge="1" parent="1">
                    <mxGeometry width="50" height="50" relative="1" as="geometry">
                        <mxPoint x="350" y="400" as="sourcePoint"/>
                        <mxPoint x="300" y="350" as="targetPoint"/>
                    </mxGeometry>
                </mxCell>
                
                <!-- Vertical grid lines -->
                <mxCell id="13" value="" style="endArrow=none;html=1;rounded=0;strokeColor=#cccccc;strokeWidth=1;" edge="1" parent="1">
                    <mxGeometry width="50" height="50" relative="1" as="geometry">
                        <mxPoint x="200" y="400" as="sourcePoint"/>
                        <mxPoint x="300" y="400" as="targetPoint"/>
                    </mxGeometry>
                </mxCell>
                
                <mxCell id="14" value="" style="endArrow=none;html=1;rounded=0;strokeColor=#cccccc;strokeWidth=1;" edge="1" parent="1">
                    <mxGeometry width="50" height="50" relative="1" as="geometry">
                        <mxPoint x="175" y="375" as="sourcePoint"/>
                        <mxPoint x="275" y="375" as="targetPoint"/>
                    </mxGeometry>
                </mxCell>
                
                <mxCell id="15" value="" style="endArrow=none;html=1;rounded=0;strokeColor=#cccccc;strokeWidth=1;" edge="1" parent="1">
                    <mxGeometry width="50" height="50" relative="1" as="geometry">
                        <mxPoint x="150" y="350" as="sourcePoint"/>
                        <mxPoint x="250" y="350" as="targetPoint"/>
                    </mxGeometry>
                </mxCell>
                
                <!-- 3D Bell Surface (multiple layers) -->
                <!-- Bottom layer (largest) -->
                <mxCell id="16" value="" style="ellipse;whiteSpace=wrap;html=1;fillColor=#d5e8d4;strokeColor=#82b366;opacity=30;" vertex="1" parent="1">
                    <mxGeometry x="120" y="350" width="240" height="100" as="geometry"/>
                </mxCell>
                
                <!-- Second layer -->
                <mxCell id="17" value="" style="ellipse;whiteSpace=wrap;html=1;fillColor=#d5e8d4;strokeColor=#82b366;opacity=40;" vertex="1" parent="1">
                    <mxGeometry x="140" y="320" width="200" height="85" as="geometry"/>
                </mxCell>
                
                <!-- Third layer -->
                <mxCell id="18" value="" style="ellipse;whiteSpace=wrap;html=1;fillColor=#fff2cc;strokeColor=#d6b656;opacity=50;" vertex="1" parent="1">
                    <mxGeometry x="160" y="290" width="160" height="70" as="geometry"/>
                </mxCell>
                
                <!-- Fourth layer -->
                <mxCell id="19" value="" style="ellipse;whiteSpace=wrap;html=1;fillColor=#fff2cc;strokeColor=#d6b656;opacity=60;" vertex="1" parent="1">
                    <mxGeometry x="180" y="260" width="120" height="55" as="geometry"/>
                </mxCell>
                
                <!-- Fifth layer -->
                <mxCell id="20" value="" style="ellipse;whiteSpace=wrap;html=1;fillColor=#ffe6cc;strokeColor=#d79b00;opacity=70;" vertex="1" parent="1">
                    <mxGeometry x="200" y="230" width="80" height="40" as="geometry"/>
                </mxCell>
                
                <!-- Top layer (peak) -->
                <mxCell id="21" value="" style="ellipse;whiteSpace=wrap;html=1;fillColor=#f8cecc;strokeColor=#b85450;opacity=80;" vertex="1" parent="1">
                    <mxGeometry x="220" y="200" width="40" height="25" as="geometry"/>
                </mxCell>
                
                <!-- Peak point -->
                <mxCell id="22" value="●" style="text;html=1;strokeColor=none;fillColor=none;align=center;verticalAlign=middle;whiteSpace=wrap;rounded=0;fontSize=16;fontColor=#d6b656;" vertex="1" parent="1">
                    <mxGeometry x="235" y="207" width="10" height="10" as="geometry"/>
                </mxCell>
                
                <!-- Vertical lines to show 3D structure -->
                <mxCell id="23" value="" style="endArrow=none;html=1;rounded=0;strokeColor=#82b366;strokeWidth=1;dashed=1;" edge="1" parent="1">
                    <mxGeometry width="50" height="50" relative="1" as="geometry">
                        <mxPoint x="160" y="390" as="sourcePoint"/>
                        <mxPoint x="160" y="340" as="targetPoint"/>
                    </mxGeometry>
                </mxCell>
                
                <mxCell id="24" value="" style="endArrow=none;html=1;rounded=0;strokeColor=#82b366;strokeWidth=1;dashed=1;" edge="1" parent="1">
                    <mxGeometry width="50" height="50" relative="1" as="geometry">
                        <mxPoint x="320" y="390" as="sourcePoint"/>
                        <mxPoint x="320" y="340" as="targetPoint"/>
                    </mxGeometry>
                </mxCell>
                
                <mxCell id="25" value="" style="endArrow=none;html=1;rounded=0;strokeColor=#d6b656;strokeWidth=1;dashed=1;" edge="1" parent="1">
                    <mxGeometry width="50" height="50" relative="1" as="geometry">
                        <mxPoint x="200" y="350" as="sourcePoint"/>
                        <mxPoint x="200" y="280" as="targetPoint"/>
                    </mxGeometry>
                </mxCell>
                
                <mxCell id="26" value="" style="endArrow=none;html=1;rounded=0;strokeColor=#d6b656;strokeWidth=1;dashed=1;" edge="1" parent="1">
                    <mxGeometry width="50" height="50" relative="1" as="geometry">
                        <mxPoint x="280" y="350" as="sourcePoint"/>
                        <mxPoint x="280" y="280" as="targetPoint"/>
                    </mxGeometry>
                </mxCell>
                
                <!-- Contour projections on base -->
                <mxCell id="27" value="" style="ellipse;whiteSpace=wrap;html=1;fillColor=none;strokeColor=#82b366;strokeWidth=2;opacity=60;" vertex="1" parent="1">
                    <mxGeometry x="120" y="370" width="240" height="100" as="geometry"/>
                </mxCell>
                
                <mxCell id="28" value="" style="ellipse;whiteSpace=wrap;html=1;fillColor=none;strokeColor=#d6b656;strokeWidth=2;opacity=70;" vertex="1" parent="1">
                    <mxGeometry x="160" y="385" width="160" height="70" as="geometry"/>
                </mxCell>
                
                <mxCell id="29" value="" style="ellipse;whiteSpace=wrap;html=1;fillColor=none;strokeColor=#d79b00;strokeWidth=2;opacity=80;" vertex="1" parent="1">
                    <mxGeometry x="200" y="400" width="80" height="40" as="geometry"/>
                </mxCell>
                
                <!-- Side view section -->
                <mxCell id="30" value="側面図" style="text;html=1;strokeColor=none;fillColor=none;align=center;verticalAlign=middle;whiteSpace=wrap;rounded=0;fontSize=14;fontStyle=1;" vertex="1" parent="1">
                    <mxGeometry x="500" y="120" width="60" height="20" as="geometry"/>
                </mxCell>
                
                <!-- Side view bell curve -->
                <mxCell id="31" value="" style="shape=mxgraph.basic.arc;startAngle=0;endAngle=1;html=1;fillColor=#f8cecc;strokeColor=#b85450;strokeWidth=2;" vertex="1" parent="1">
                    <mxGeometry x="480" y="150" width="100" height="50" as="geometry"/>
                </mxCell>
                
                <!-- Side view axes -->
                <mxCell id="32" value="" style="endArrow=classic;html=1;rounded=0;strokeWidth=2;" edge="1" parent="1">
                    <mxGeometry width="50" height="50" relative="1" as="geometry">
                        <mxPoint x="470" y="220" as="sourcePoint"/>
                        <mxPoint x="590" y="220" as="targetPoint"/>
                    </mxGeometry>
                </mxCell>
                
                <mxCell id="33" value="" style="endArrow=classic;html=1;rounded=0;strokeWidth=2;" edge="1" parent="1">
                    <mxGeometry width="50" height="50" relative="1" as="geometry">
                        <mxPoint x="470" y="220" as="sourcePoint"/>
                        <mxPoint x="470" y="130" as="targetPoint"/>
                    </mxGeometry>
                </mxCell>
                
                <mxCell id="34" value="X" style="text;html=1;strokeColor=none;fillColor=none;align=center;verticalAlign=middle;whiteSpace=wrap;rounded=0;fontSize=12;" vertex="1" parent="1">
                    <mxGeometry x="590" y="225" width="20" height="15" as="geometry"/>
                </mxCell>
                
                <mxCell id="35" value="f(X)" style="text;html=1;strokeColor=none;fillColor=none;align=center;verticalAlign=middle;whiteSpace=wrap;rounded=0;fontSize=12;" vertex="1" parent="1">
                    <mxGeometry x="445" y="120" width="30" height="15" as="geometry"/>
                </mxCell>
                
                <!-- Mathematical description -->
                <mxCell id="36" value="特徴:" style="text;html=1;strokeColor=none;fillColor=none;align=left;verticalAlign=middle;whiteSpace=wrap;rounded=0;fontSize=14;fontStyle=1;" vertex="1" parent="1">
                    <mxGeometry x="480" y="250" width="50" height="20" as="geometry"/>
                </mxCell>
                
                <mxCell id="37" value="• 釣鐘型の3D表面" style="text;html=1;strokeColor=none;fillColor=none;align=left;verticalAlign=middle;whiteSpace=wrap;rounded=0;fontSize=12;" vertex="1" parent="1">
                    <mxGeometry x="480" y="275" width="120" height="15" as="geometry"/>
                </mxCell>
                
                <mxCell id="38" value="• 中心で最大値" style="text;html=1;strokeColor=none;fillColor=none;align=left;verticalAlign=middle;whiteSpace=wrap;rounded=0;fontSize=12;" vertex="1" parent="1">
                    <mxGeometry x="480" y="295" width="100" height="15" as="geometry"/>
                </mxCell>
                
                <mxCell id="39" value="• 楕円形の等高線" style="text;html=1;strokeColor=none;fillColor=none;align=left;verticalAlign=middle;whiteSpace=wrap;rounded=0;fontSize=12;" vertex="1" parent="1">
                    <mxGeometry x="480" y="315" width="110" height="15" as="geometry"/>
                </mxCell>
                
                <!-- Mean vector indication -->
                <mxCell id="40" value="μ = (μ₁, μ₂)" style="text;html=1;strokeColor=none;fillColor=none;align=center;verticalAlign=middle;whiteSpace=wrap;rounded=0;fontSize=12;fontStyle=1;fontColor=#d6b656;" vertex="1" parent="1">
                    <mxGeometry x="200" y="180" width="80" height="15" as="geometry"/>
                </mxCell>
                
                <!-- Covariance matrix indication -->
                <mxCell id="41" value="共分散行列 Σ が等高線の形を決定" style="text;html=1;strokeColor=none;fillColor=none;align=center;verticalAlign=middle;whiteSpace=wrap;rounded=0;fontSize=12;" vertex="1" parent="1">
                    <mxGeometry x="120" y="480" width="200" height="20" as="geometry"/>
                </mxCell>
                
                <!-- Legend -->
                <mxCell id="42" value="凡例:" style="text;html=1;strokeColor=none;fillColor=none;align=left;verticalAlign=middle;whiteSpace=wrap;rounded=0;fontSize=12;fontStyle=1;" vertex="1" parent="1">
                    <mxGeometry x="50" y="450" width="40" height="15" as="geometry"/>
                </mxCell>
                
                <mxCell id="43" value="" style="ellipse;whiteSpace=wrap;html=1;fillColor=#f8cecc;strokeColor=#b85450;opacity=80;" vertex="1" parent="1">
                    <mxGeometry x="50" y="470" width="20" height="10" as="geometry"/>
                </mxCell>
                
                <mxCell id="44" value="高確率密度" style="text;html=1;strokeColor=none;fillColor=none;align=left;verticalAlign=middle;whiteSpace=wrap;rounded=0;fontSize=10;" vertex="1" parent="1">
                    <mxGeometry x="75" y="470" width="70" height="10" as="geometry"/>
                </mxCell>
                
                <mxCell id="45" value="" style="ellipse;whiteSpace=wrap;html=1;fillColor=#d5e8d4;strokeColor=#82b366;opacity=30;" vertex="1" parent="1">
                    <mxGeometry x="50" y="485" width="20" height="10" as="geometry"/>
                </mxCell>
                
                <mxCell id="46" value="低確率密度" style="text;html=1;strokeColor=none;fillColor=none;align=left;verticalAlign=middle;whiteSpace=wrap;rounded=0;fontSize=10;" vertex="1" parent="1">
                    <mxGeometry x="75" y="485" width="70" height="10" as="geometry"/>
                </mxCell>
            </root>
        </mxGraphModel>
    </diagram>
</mxfile>